<?xml version="1.0" standalone="no"?>
<!DOCTYPE svg PUBLIC "-//W3C//DTD SVG 20010904//EN"
 "http://www.w3.org/TR/2001/REC-SVG-20010904/DTD/svg10.dtd">
<svg version="1.0" xmlns="http://www.w3.org/2000/svg"
 width="460.000000pt" height="460.000000pt" viewBox="0 0 460.000000 460.000000"
 preserveAspectRatio="xMidYMid meet">
<metadata>
Created by potrace 1.14, written by Peter Selinger 2001-2017
</metadata>
<g transform="translate(0.000000,460.000000) scale(0.100000,-0.100000)"
fill="#000000" stroke="none">
<path d="M0 3285 c0 -1123 2 -1319 14 -1338 14 -21 11 -81 -3 -73 -3 2 -7 -7
-8 -21 -1 -20 1 -23 9 -12 7 10 8 9 3 -6 -12 -33 -11 -50 2 -47 7 1 13 -5 13
-13 0 -8 -6 -12 -14 -9 -12 5 -15 -39 -16 -290 -1 -306 -1 -305 42 -364 16
-22 16 -26 1 -49 -16 -23 -15 -25 10 -49 24 -22 27 -32 28 -97 1 -40 0 -84 -1
-100 -1 -17 4 -29 14 -33 9 -4 21 -26 28 -51 7 -31 13 -41 19 -31 9 13 9 13
13 -24 0 -7 15 -19 31 -28 17 -8 32 -18 35 -21 9 -11 69 -39 84 -39 8 0 16
-10 18 -23 3 -23 43 -34 54 -15 3 5 17 0 30 -13 l23 -22 11 28 c12 31 26 24
32 -15 3 -23 8 -25 62 -30 33 -3 61 -10 63 -17 3 -9 -4 -10 -26 -3 -28 8 -32
6 -37 -16 -4 -15 -13 -24 -25 -24 -10 0 -23 -9 -30 -21 -7 -14 -17 -19 -30
-16 -23 6 -24 -10 -4 -37 19 -25 21 -56 3 -38 -18 18 -49 15 -41 -4 8 -20 -36
-103 -61 -116 -21 -11 -56 -43 -56 -52 0 -2 8 -6 18 -9 12 -3 6 -9 -21 -21
-28 -12 -37 -21 -33 -33 4 -10 -1 -21 -14 -30 -11 -8 -20 -25 -20 -39 l0 -24
1350 0 c802 0 1350 4 1350 9 0 5 14 13 32 16 23 6 35 3 43 -9 11 -14 49 -16
335 -16 272 0 321 2 317 14 -3 8 1 22 9 33 11 12 14 13 11 3 -9 -32 12 -50 58
-50 25 0 45 5 48 13 4 10 6 10 6 0 1 -7 8 -13 16 -13 8 0 12 6 9 14 -3 8 3 16
15 19 13 3 21 0 21 -8 0 -7 14 -15 31 -19 51 -10 189 -7 189 4 0 6 -3 10 -7
10 -11 0 -33 50 -33 72 0 21 27 51 56 62 18 7 18 8 2 17 -13 7 -18 23 -18 54
0 45 -16 63 -22 26 -3 -17 -5 -18 -22 -6 -16 12 -17 17 -6 30 10 12 10 18 0
30 -9 11 -9 22 1 48 14 40 7 67 -18 67 -10 0 -26 12 -36 25 -16 22 -16 27 -3
40 8 8 20 15 26 15 8 0 10 9 6 25 -4 14 -2 25 4 25 5 0 10 -11 10 -25 0 -30
20 -33 27 -5 4 15 9 17 23 10 27 -15 40 -12 33 6 -5 13 -8 13 -15 2 -7 -9 -8
-5 -3 12 4 14 7 32 8 41 1 9 7 15 14 12 7 -3 13 -1 13 4 0 6 14 25 30 44 38
43 96 132 106 162 10 31 24 37 44 18 40 -35 47 -39 61 -30 19 12 59 11 59 -1
0 -5 -4 -10 -10 -10 -5 0 -10 -6 -10 -14 0 -8 -5 -16 -11 -18 -7 -2 -5 -11 7
-23 18 -18 19 -18 24 1 3 10 11 28 18 39 11 19 13 19 22 3 13 -22 40 -24 40
-3 0 11 11 15 40 15 22 0 40 5 40 10 0 6 9 10 20 10 11 0 20 5 20 10 0 6 -9
10 -20 10 -11 0 -20 5 -20 10 0 6 9 10 20 10 20 0 20 7 20 1875 l0 1875 -2300
0 -2300 0 0 -1315z m2617 653 c-3 -8 -6 -5 -6 6 -1 11 2 17 5 13 3 -3 4 -12 1
-19z m435 -268 c4 0 8 5 8 11 0 5 5 7 11 3 6 -3 9 -17 6 -30 -2 -13 0 -24 4
-24 5 0 9 -5 9 -11 0 -5 -4 -7 -10 -4 -5 3 -10 -3 -10 -14 0 -10 -3 -28 -6
-38 -5 -16 -4 -16 5 -1 6 9 20 15 31 13 11 -2 23 1 26 7 5 7 2 8 -6 3 -10 -6
-12 -4 -7 9 5 11 3 15 -5 10 -8 -5 -9 -2 -5 9 3 9 2 19 -3 22 -6 4 -6 14 0 26
15 27 30 14 30 -27 0 -41 14 -43 53 -6 26 24 28 24 18 4 -6 -12 -22 -29 -35
-37 -17 -11 -22 -22 -19 -36 4 -14 9 -17 16 -10 15 15 27 14 27 -4 0 -13 -15
-19 -40 -17 -3 0 -10 -10 -17 -24 -6 -13 -8 -22 -4 -20 4 3 7 -3 8 -13 1 -10
-5 -18 -12 -18 -8 0 -12 4 -10 8 3 3 -2 12 -10 19 -8 7 -15 9 -15 5 0 -4 -6
-2 -14 4 -9 8 -15 8 -18 2 -1 -6 -22 -13 -45 -16 -35 -4 -43 -2 -43 11 0 12 8
15 34 11 36 -5 46 5 46 41 -1 14 -3 14 -16 -3 -17 -23 -33 -26 -53 -11 -10 8
-15 7 -19 -2 -3 -9 -9 -6 -20 10 -20 28 -27 74 -12 83 5 3 10 11 10 16 0 6 -4
8 -9 4 -6 -3 -9 4 -8 15 1 11 2 20 4 20 6 0 51 -47 62 -65 11 -18 11 -18 5 5
-4 14 -7 30 -7 37 0 7 -4 10 -9 7 -4 -3 -8 -1 -8 4 0 5 9 12 20 15 10 3 19 2
18 -2 -1 -3 1 -23 5 -43 5 -22 4 -46 -2 -56 -8 -14 -6 -19 5 -19 20 0 27 37
15 71 -6 15 -11 44 -10 64 l1 37 11 -27 c6 -16 14 -28 19 -28z m-152 -41 c5
-8 7 -29 6 -48 -1 -20 3 -35 11 -38 7 -3 13 -16 13 -30 0 -18 4 -24 15 -19 9
3 15 0 15 -9 0 -26 -29 -16 -36 13 -4 15 -16 33 -27 41 -13 10 -16 16 -7 21
12 8 2 33 -28 71 -10 13 -9 15 9 14 12 -1 25 -8 29 -16z m-40 -47 c0 -15 -2
-15 -10 -2 -13 20 -13 33 0 25 6 -3 10 -14 10 -23z m317 -134 c-3 -7 -5 -2 -5
12 0 14 2 19 5 13 2 -7 2 -19 0 -25z m-92 12 c3 -5 -1 -10 -9 -10 -8 0 -18 5
-21 10 -3 6 1 10 9 10 8 0 18 -4 21 -10z m-124 -41 l-10 -24 0 26 c-1 14 2 29
6 33 12 12 14 -9 4 -35z m-93 -14 c-3 -3 -9 2 -12 12 -6 14 -5 15 5 6 7 -7 10
-15 7 -18z m228 3 c5 -7 2 -9 -9 -5 -9 3 -17 1 -19 -5 -3 -7 -10 -8 -17 -4
-11 7 -11 10 0 17 19 12 37 11 45 -3z m-61 -26 c-3 -3 -14 -6 -25 -7 -15 -1
-17 1 -9 11 6 7 17 10 25 7 8 -3 12 -8 9 -11z m51 -57 c16 -16 7 -19 -20 -9
-9 3 -13 10 -10 15 7 12 13 11 30 -6z m104 -26 c0 -11 -4 -18 -10 -14 -5 3 -7
12 -3 20 7 21 13 19 13 -6z m-530 -30 c0 -6 -4 -7 -10 -4 -5 3 -10 11 -10 16
0 6 5 7 10 4 6 -3 10 -11 10 -16z m200 1 c0 -5 -2 -10 -4 -10 -3 0 -8 5 -11
10 -3 6 -1 10 4 10 6 0 11 -4 11 -10z m470 -20 c0 -5 -4 -10 -10 -10 -5 0 -10
5 -10 10 0 6 5 10 10 10 6 0 10 -4 10 -10z m-55 -50 c-3 -5 3 -14 15 -20 18
-10 19 -8 15 22 -3 18 -2 26 1 18 4 -8 12 -21 18 -29 6 -7 9 -27 7 -43 -2 -21
1 -28 9 -23 6 4 9 13 6 21 -3 7 0 16 5 20 6 4 8 20 4 40 -6 34 5 43 32 26 13
-8 6 -62 -8 -62 -5 0 -9 -4 -9 -10 0 -12 22 -9 32 5 4 6 8 1 9 -10 1 -17 2
-16 10 5 8 23 8 22 3 -5 -3 -16 -5 -37 -5 -45 0 -9 -9 -16 -19 -16 -14 0 -16
4 -9 17 14 27 11 35 -6 13 -8 -10 -15 -24 -15 -31 0 -14 39 -14 58 0 8 6 12 6
12 -1 0 -6 -4 -14 -10 -17 -16 -10 -11 -28 6 -21 8 3 13 2 9 -3 -3 -5 0 -11 7
-13 7 -3 5 -7 -6 -11 -10 -4 -15 -3 -11 3 3 6 4 10 1 10 -3 0 -8 -5 -11 -10
-3 -6 6 -15 20 -20 30 -11 55 -3 34 12 -9 5 -4 6 15 2 16 -4 37 -15 47 -25 22
-22 40 -24 58 -6 11 10 13 10 7 0 -5 -8 -1 -13 11 -14 10 0 13 -3 6 -6 -7 -2
-13 -13 -13 -24 0 -10 -7 -19 -15 -19 -12 0 -13 4 -6 19 9 16 7 17 -16 13 -17
-3 -24 -1 -19 6 6 10 -27 9 -87 -3 -9 -2 -15 1 -12 5 10 17 -13 19 -26 3 -12
-14 -12 -16 0 -8 11 6 13 4 8 -8 -3 -9 -1 -22 6 -29 7 -7 18 -21 26 -31 19
-25 -5 -22 -26 3 -21 25 -61 27 -59 4 1 -21 -31 -27 -38 -7 -3 8 -11 11 -16 8
-6 -4 -9 -1 -8 7 3 15 -31 12 -47 -3 -7 -7 -3 -8 9 -3 15 6 18 4 13 -9 -3 -9
-2 -19 3 -22 6 -4 10 -11 10 -16 0 -6 -5 -7 -11 -3 -8 4 -9 0 -4 -15 5 -16 3
-20 -8 -15 -8 3 -17 -2 -20 -10 -4 -9 -16 -14 -34 -12 -15 2 -26 7 -23 12 3 5
7 8 10 7 3 -1 13 -5 23 -8 11 -5 17 -2 17 8 0 8 -6 15 -12 14 -34 -1 -48 4
-48 19 0 10 -6 14 -14 11 -15 -6 -46 47 -46 77 0 14 4 15 21 5 15 -8 18 -13
10 -19 -9 -5 -9 -9 3 -13 20 -8 21 12 2 39 -10 13 -11 23 -4 32 8 10 7 11 -7
5 -15 -5 -17 -3 -12 11 4 10 3 15 -3 11 -6 -3 -10 2 -10 12 0 10 -10 24 -21
32 -19 11 -21 11 -16 -4 4 -10 3 -14 -4 -10 -5 4 -7 15 -4 26 4 13 2 19 -9 19
-18 0 -22 25 -6 35 16 10 40 -14 33 -32 -5 -12 -2 -15 10 -10 8 3 20 0 26 -6
12 -15 65 -21 56 -7 -3 6 -15 10 -26 10 -11 0 -18 4 -15 9 3 5 -3 19 -13 32
-15 19 -16 26 -6 36 10 9 17 8 31 -8 9 -10 14 -19 10 -19 -3 0 1 -11 10 -26 9
-14 22 -23 29 -20 7 2 17 0 23 -6 8 -8 9 -4 5 11 -3 14 -11 20 -20 17 -8 -3
-13 0 -12 7 1 6 -1 24 -5 39 -6 19 -3 34 8 50 11 15 16 18 17 8 0 -9 5 -5 11
8 10 20 13 21 20 7 5 -8 6 -19 3 -25z m-630 0 c3 -6 -1 -7 -9 -4 -18 7 -21 14
-7 14 6 0 13 -4 16 -10z m125 -20 c0 -5 -4 -10 -9 -10 -6 0 -13 5 -16 10 -3 6
1 10 9 10 9 0 16 -4 16 -10z m-107 -55 c-3 -9 -8 -14 -10 -11 -3 3 -2 9 2 15
9 16 15 13 8 -4z m904 -91 c-3 -3 -12 -4 -19 -1 -8 3 -5 6 6 6 11 1 17 -2 13
-5z m-550 -46 c3 -21 3 -21 -17 -3 -15 14 -17 20 -8 26 15 10 21 5 25 -23z
m53 -23 c0 -17 39 -63 40 -47 0 6 -4 12 -10 12 -5 0 -10 5 -10 11 0 8 5 7 15
-1 9 -7 14 -18 12 -24 -3 -6 5 -21 16 -33 30 -33 15 -38 -17 -6 l-27 27 11
-28 c13 -35 13 -56 0 -36 -11 17 -34 91 -32 102 1 4 -7 10 -18 13 -21 7 -28
25 -9 25 8 0 7 6 -2 18 -11 14 -10 13 9 -2 12 -11 22 -25 22 -31z m60 -7 c0
-21 -24 0 -31 28 l-8 29 19 -24 c11 -13 20 -28 20 -33z m-112 -18 c7 -11 9
-20 6 -20 -3 0 -17 9 -31 20 -22 17 -23 20 -7 20 11 0 25 -9 32 -20z m468 -11
c8 -14 -10 -11 -32 6 -18 13 -18 14 4 8 12 -3 25 -9 28 -14z m-501 -23 c15
-14 25 -29 22 -33 -9 -14 21 -73 35 -71 7 2 12 -3 10 -10 -3 -18 17 -54 27
-47 5 3 11 -2 15 -10 6 -18 1 -19 -24 -5 -42 22 -108 105 -67 85 6 -4 3 0 -8
9 -30 23 -75 70 -75 79 0 12 18 8 34 -9 18 -18 21 -11 6 17 -14 26 -6 24 25
-5z m610 -36 c-3 -5 0 -10 9 -10 8 0 13 -7 11 -17 -2 -17 -24 -19 -35 -5 -3 4
-11 8 -19 10 -12 3 -12 0 -1 -13 11 -13 10 -15 -3 -9 -28 10 -32 46 -7 66 19
16 24 16 37 3 8 -8 11 -19 8 -25z m-166 5 c5 2 16 -4 25 -14 23 -25 4 -37 -35
-21 -31 13 -36 28 -16 49 10 10 13 9 15 -4 2 -8 7 -13 11 -10z m-49 -17 c0 -5
-11 -8 -25 -8 -14 0 -25 4 -25 9 0 5 11 8 25 7 14 0 25 -4 25 -8z m-190 -29
c0 -9 -9 -19 -20 -22 -11 -3 -20 -1 -20 4 0 5 5 9 11 9 6 0 9 6 6 13 -3 8 1
14 9 14 8 0 14 -8 14 -18z m220 1 c0 -5 -7 -10 -15 -10 -8 0 -15 5 -15 10 0 6
7 10 15 10 8 0 15 -4 15 -10z m-469 -25 c6 6 9 -67 3 -84 -3 -11 -10 -9 -29 9
l-25 24 13 -45 c8 -24 12 -49 10 -56 -2 -6 1 -14 6 -18 6 -3 11 -1 11 5 0 6 5
8 10 5 16 -10 12 -21 -9 -22 -12 -1 -26 12 -40 38 -12 22 -26 37 -30 35 -4 -3
-7 4 -7 15 0 27 13 24 31 -8 9 -16 14 -20 11 -11 -3 9 -10 35 -16 57 -6 22
-15 43 -20 46 -6 3 -10 11 -10 16 0 14 54 -41 63 -63 3 -10 10 -18 15 -18 13
0 2 58 -14 71 -8 6 -14 16 -14 22 0 5 8 3 18 -6 10 -10 21 -15 23 -12z m193
10 c-4 -8 -11 -15 -16 -15 -6 0 -5 6 2 15 7 8 14 15 16 15 2 0 1 -7 -2 -15z
m403 -7 c-2 -9 12 -19 53 -38 20 -10 27 -42 7 -34 -9 3 -26 0 -38 -7 -17 -9
-24 -9 -27 0 -2 6 -8 9 -13 5 -5 -3 -9 0 -9 5 0 6 6 11 14 11 8 0 18 5 22 12
4 7 3 8 -4 4 -7 -4 -12 -1 -12 8 0 9 -4 16 -8 16 -5 0 -17 7 -28 16 -18 15
-18 15 5 8 16 -4 21 -3 17 5 -4 7 -1 9 8 5 9 -3 14 -10 13 -16z m-87 8 c0 -2
-9 -6 -20 -9 -11 -3 -18 -1 -14 4 5 9 34 13 34 5z m-330 -36 c0 -5 -5 -10 -11
-10 -5 0 -7 5 -4 10 3 6 8 10 11 10 2 0 4 -4 4 -10z m107 4 c-3 -3 -12 -4 -19
-1 -8 3 -5 6 6 6 11 1 17 -2 13 -5z m280 -31 c-21 -22 -32 -11 -15 16 8 13 16
17 22 11 7 -7 4 -16 -7 -27z m-492 17 c3 -6 -1 -7 -9 -4 -18 7 -21 14 -7 14 6
0 13 -4 16 -10z m676 -10 c11 0 31 -11 45 -25 14 -14 31 -25 38 -25 19 0 54
-40 35 -40 -9 -1 -6 -7 9 -20 22 -18 22 -21 8 -54 -8 -20 -20 -36 -27 -36 -7
0 -10 3 -6 6 3 3 1 19 -5 36 l-11 30 -23 -28 c-13 -16 -21 -21 -18 -12 4 11 0
20 -10 24 -20 8 -21 6 -29 -26 -6 -22 -3 -25 24 -25 22 0 34 7 44 25 l14 25
-4 -31 c-3 -27 0 -31 18 -29 12 1 28 3 35 4 7 0 12 7 11 14 -3 28 2 37 22 37
19 0 21 -4 14 -37 l-7 -38 37 35 c35 33 37 33 30 10 -4 -14 -16 -33 -26 -43
-11 -10 -19 -23 -19 -30 0 -12 49 42 50 56 0 4 7 7 15 7 20 0 19 -20 -2 -49
-15 -22 -15 -25 1 -36 13 -10 14 -18 6 -40 -7 -20 -7 -26 1 -23 7 2 13 16 15
32 3 29 20 56 36 56 5 0 7 -4 4 -9 -3 -5 -8 -26 -11 -47 -3 -22 -9 -52 -12
-69 -4 -16 -6 -36 -4 -42 1 -7 -3 -13 -9 -13 -14 0 -13 -47 1 -56 8 -4 7 -9
-2 -15 -11 -8 -11 -11 4 -20 23 -13 22 -28 -2 -22 -14 3 -20 -2 -25 -24 -4
-15 -18 -42 -32 -60 -28 -37 -15 -54 17 -24 23 22 39 19 39 -5 0 -8 -6 -14
-14 -12 -8 2 -15 -1 -16 -6 -1 -15 33 -17 42 -3 5 7 8 1 8 -14 0 -20 6 -28 25
-33 14 -4 25 -13 25 -21 0 -8 -11 -17 -25 -21 -26 -6 -32 -28 -16 -53 8 -12
12 -12 25 -2 14 12 16 11 16 -6 0 -10 5 -24 12 -31 7 -7 10 -12 7 -13 -2 0
-12 -2 -21 -4 -11 -2 -18 3 -18 11 0 8 -12 19 -26 24 -32 12 -34 12 -34 -1 0
-5 4 -8 9 -5 5 3 11 -3 14 -14 4 -17 2 -18 -14 -9 -13 6 -19 6 -19 -1 0 -5 -4
-10 -10 -10 -9 0 -26 65 -22 88 2 6 -7 12 -19 12 -14 0 -19 5 -16 14 4 9 -3
17 -16 21 l-22 6 21 9 c24 10 39 28 30 37 -3 3 -11 1 -18 -4 -7 -6 -24 -14
-38 -18 l-25 -7 23 25 24 25 -40 7 c-38 6 -65 24 -146 98 -17 15 -33 27 -37
27 -4 0 -10 7 -13 16 -4 11 5 29 29 52 73 73 36 192 -60 192 -22 0 -57 -9 -78
-20 -35 -19 -43 -16 -38 13 1 5 -3 6 -8 3 -5 -4 -13 -21 -16 -39 -4 -17 -13
-45 -20 -62 -7 -16 -16 -39 -20 -50 -7 -19 -7 -19 -16 4 -6 14 -7 38 -3 55 6
28 5 29 -10 17 -9 -8 -33 -37 -53 -65 -54 -75 -104 -125 -119 -119 -9 3 -14
20 -14 43 0 67 -59 130 -123 130 -17 0 -30 7 -34 18 -3 9 -12 24 -19 32 -7 8
-14 34 -17 58 -4 39 -2 44 30 63 21 13 32 27 29 35 -3 8 -1 14 3 14 5 0 11 -5
13 -11 2 -7 12 -7 32 1 35 13 154 18 160 7 3 -4 3 -2 2 5 -2 7 -10 12 -19 12
-9 -1 -14 2 -11 7 3 5 11 9 17 8 32 -4 40 1 27 16 -10 12 -10 15 3 15 9 0 22
-6 29 -13 22 -24 39 5 30 50 -7 30 -13 38 -29 36 -11 -1 -20 4 -20 12 0 12 5
12 35 -1 19 -8 35 -14 36 -14 2 0 1 -14 -2 -30 -3 -25 -1 -29 12 -24 11 4 16
1 16 -10 0 -9 4 -16 9 -16 12 0 23 -48 14 -63 -10 -15 -4 -59 9 -72 7 -7 8 0
3 23 -4 20 -3 32 4 32 6 0 11 -9 11 -19 0 -24 16 -36 19 -16 2 8 4 40 4 70 1
30 6 55 11 55 4 0 6 7 3 15 -4 8 -2 17 3 20 9 6 15 -28 12 -67 -1 -13 6 -18
23 -18 22 0 25 -4 26 -37 l1 -38 9 32 c5 18 13 35 18 38 6 3 6 18 1 35 -10 35
4 41 15 8 l8 -23 4 23 c6 32 20 27 19 -8 -1 -16 -5 -30 -11 -30 -5 0 -4 -5 3
-12 7 -7 12 -21 12 -32 0 -19 2 -18 13 4 14 28 10 73 -5 63 -6 -3 -8 0 -6 8 3
8 15 14 27 13 26 -1 26 -3 0 40 -14 24 -18 43 -13 58 4 13 9 18 11 11 3 -7 13
-13 24 -13z m-476 -19 c17 -10 17 -12 2 -7 -10 3 -23 6 -28 6 -5 0 -9 8 -9 18
0 10 3 13 8 6 4 -6 16 -16 27 -23z m-90 10 c3 -5 2 -12 -3 -15 -5 -3 -9 1 -9
9 0 17 3 19 12 6z m162 3 c-3 -3 -12 -4 -19 -1 -8 3 -5 6 6 6 11 1 17 -2 13
-5z m-1472 -61 c94 -65 157 -139 177 -207 16 -57 19 -141 7 -206 -10 -51 -84
-201 -98 -197 -3 1 -17 -5 -30 -12 -16 -9 -47 -12 -97 -9 l-74 5 6 -26 c3 -14
7 -31 9 -38 13 -41 -45 -132 -94 -148 -12 -3 -21 -11 -21 -16 0 -5 -5 -9 -11
-9 -5 0 -7 5 -4 10 3 6 4 10 1 10 -2 0 -11 3 -19 6 -8 3 -22 -2 -31 -11 -11
-11 -25 -15 -41 -11 -26 7 -34 31 -12 40 6 3 -6 3 -27 -1 -34 -5 -38 -3 -33
11 4 10 1 16 -8 16 -8 0 -18 7 -23 16 -7 13 -24 20 -54 23 -17 2 -7 19 14 25
22 5 22 6 3 20 -11 9 -28 16 -38 16 -10 0 -16 4 -12 9 3 5 1 12 -5 16 -10 6
-15 -9 -10 -30 1 -5 -2 -6 -6 -2 -5 4 -7 25 -5 45 3 36 2 36 -16 19 -11 -9
-26 -17 -34 -17 -8 0 -20 -5 -26 -11 -6 -6 -35 -13 -63 -14 -65 -5 -104 13
-132 61 -11 19 -26 34 -34 34 -8 0 -14 4 -14 10 0 5 -17 14 -38 20 -41 11 -71
38 -90 83 -6 15 -16 27 -22 27 -6 0 -9 8 -6 18 2 9 7 27 11 40 5 17 2 22 -13
22 -26 0 -44 24 -45 58 0 15 -2 21 -4 15 -11 -30 -23 -9 -23 40 0 37 5 58 18
69 9 10 33 37 52 62 19 25 40 45 45 45 6 1 23 12 39 26 37 32 78 40 206 40
115 0 154 -11 231 -64 l44 -29 41 38 c73 67 193 111 289 107 52 -3 68 -9 120
-44z m1494 25 c9 -14 8 -18 -4 -18 -8 0 -15 4 -15 8 0 5 -12 13 -27 19 l-28
11 32 -2 c18 0 36 -8 42 -18z m-249 -14 c0 -9 -5 -12 -12 -8 -8 5 -9 1 -4 -12
6 -15 5 -16 -5 -7 -10 10 -9 15 1 28 16 19 20 19 20 -1z m560 0 c0 -2 -9 -4
-21 -4 -11 0 -18 4 -14 10 5 8 35 3 35 -6z m-520 -15 c0 -5 -4 -9 -10 -9 -5 0
-10 7 -10 16 0 8 5 12 10 9 6 -3 10 -10 10 -16z m254 5 c9 -22 8 -24 -9 -24
-8 0 -15 9 -15 20 0 24 15 27 24 4z m-391 -8 c4 -10 1 -13 -8 -9 -8 3 -12 9
-9 14 7 12 11 11 17 -5z m582 4 c3 -5 2 -10 -3 -10 -5 0 -8 -12 -6 -27 4 -28
4 -28 -5 -3 -5 14 -9 31 -10 38 -1 14 15 16 24 2z m-77 -22 c-6 -18 -28 -21
-28 -4 0 9 7 16 16 16 9 0 14 -5 12 -12z m111 -48 c1 -12 -1 -12 -14 0 -9 10
-12 24 -8 40 l7 25 7 -25 c4 -14 7 -32 8 -40z m-359 40 c0 -5 -2 -10 -4 -10
-3 0 -8 5 -11 10 -3 6 -1 10 4 10 6 0 11 -4 11 -10z m-105 -21 c4 -11 4 -23 1
-26 -3 -4 -6 2 -6 11 0 11 -5 16 -13 13 -8 -3 -14 1 -14 9 0 22 25 17 32 -7z
m-361 -28 c16 -16 39 -32 52 -35 13 -4 24 -13 24 -21 0 -13 -3 -13 -25 1 -14
9 -25 13 -25 9 0 -4 -9 3 -20 16 -10 13 -19 19 -20 14 0 -6 5 -16 12 -23 9 -9
9 -12 1 -12 -11 0 -29 37 -25 53 1 4 -2 7 -8 7 -5 0 -10 5 -10 10 0 18 15 11
44 -19z m86 -14 c0 -4 -11 0 -25 9 -14 9 -25 20 -25 26 0 11 49 -23 50 -35z
m360 33 c0 -5 -2 -10 -4 -10 -3 0 -8 5 -11 10 -3 6 -1 10 4 10 6 0 11 -4 11
-10z m-160 -33 c0 -5 -4 -5 -10 -2 -5 3 -10 14 -10 23 0 15 2 15 10 2 5 -8 10
-19 10 -23z m-100 -13 c0 -8 -7 -17 -15 -20 -8 -4 -12 -11 -8 -17 3 -5 1 -7
-5 -3 -5 3 -24 -6 -42 -20 -17 -15 -33 -25 -35 -23 -6 7 19 35 43 48 12 7 20
16 17 22 -4 5 -3 9 2 8 23 -4 35 2 29 17 -3 8 -2 12 4 9 6 -3 10 -13 10 -21z
m-135 -44 c8 -12 15 -50 10 -50 -2 0 -10 14 -19 30 -13 27 -6 44 9 20z m1183
-33 c-13 -25 -17 -18 -11 16 4 20 8 25 14 16 4 -7 3 -21 -3 -32z m-1321 -36
c8 -18 12 -35 9 -38 -2 -2 -7 6 -11 19 -4 13 -17 37 -28 53 -19 26 -19 28 -3
15 11 -8 25 -30 33 -49z m147 -20 c-6 -6 -44 30 -44 42 0 5 11 -1 24 -14 14
-13 23 -26 20 -28z m-138 -60 c0 -25 -17 -13 -47 35 -12 21 -25 31 -32 27 -7
-4 -6 0 1 10 13 15 17 13 46 -17 17 -19 32 -43 32 -55z m180 74 c17 -16 14
-18 -10 -9 -9 3 -16 10 -16 15 0 13 9 11 26 -6z m104 11 c0 -11 -19 -15 -25
-6 -3 5 1 10 9 10 9 0 16 -2 16 -4z m-204 -50 c0 -13 -4 -22 -8 -20 -9 6 -6
44 3 44 4 0 6 -11 5 -24z m88 -22 c7 -18 -3 -44 -16 -44 -6 0 -5 6 2 15 10 12
8 18 -11 34 -23 19 -23 20 -2 14 12 -3 24 -11 27 -19z m-133 -31 c13 -16 12
-17 -3 -4 -17 13 -22 21 -14 21 2 0 10 -8 17 -17z m262 -13 c-7 -28 -13 -25
-13 6 0 14 4 23 9 20 5 -3 7 -15 4 -26z m-374 -11 l16 -24 -24 16 c-27 17 -42
44 -21 37 7 -2 20 -15 29 -29z m1422 -33 c-6 -8 -5 -27 6 -59 17 -51 10 -74
-13 -43 -16 23 -19 40 -4 31 5 -3 2 11 -6 31 -11 27 -12 39 -3 50 6 7 15 11
21 8 5 -4 5 -10 -1 -18z m-1415 -8 c7 -5 14 -3 18 7 7 20 32 19 41 -2 13 -29
13 -39 4 -54 -7 -11 -9 -9 -10 6 -3 43 -4 48 -17 52 -8 3 -10 -1 -5 -13 4 -11
3 -15 -4 -11 -6 4 -13 3 -15 -3 -1 -5 -16 1 -33 15 -21 18 -24 23 -10 18 11
-3 25 -10 31 -15z m1440 -9 c5 -8 9 -8 14 1 5 8 9 7 13 -5 4 -9 3 -13 -2 -10
-5 3 -13 1 -16 -5 -7 -12 -35 5 -35 21 0 13 18 11 26 -2z m-1145 -36 c13 -16
12 -17 -3 -4 -17 13 -22 21 -14 21 2 0 10 -8 17 -17z m-353 -37 c-3 -13 -8
-12 -38 1 -19 8 -30 17 -23 20 7 2 21 -1 32 -7 18 -9 21 -8 22 7 0 10 3 13 6
6 2 -7 3 -19 1 -27z m100 9 c-3 -3 -9 2 -12 12 -6 14 -5 15 5 6 7 -7 10 -15 7
-18z m1417 15 c-3 -5 -12 -10 -18 -10 -7 0 -6 4 3 10 19 12 23 12 15 0z
m-1344 -33 c-10 -9 -11 -8 -5 6 3 10 9 15 12 12 3 -3 0 -11 -7 -18z m40 16 c0
-5 2 -19 5 -33 2 -14 1 -20 -3 -14 -5 6 -16 10 -26 8 -9 -1 -15 2 -11 7 3 5
10 6 16 3 6 -4 8 1 3 15 -4 12 -2 21 4 21 6 0 11 -3 12 -7z m1329 -25 c0 -6
-6 -5 -15 2 -8 7 -15 14 -15 16 0 2 7 1 15 -2 8 -4 15 -11 15 -16z m-1271 -29
c17 -37 20 -39 30 -23 10 18 10 18 11 -2 0 -28 -26 -27 -57 2 -18 16 -23 29
-18 43 9 29 13 27 34 -20z m-2492 9 c-3 -8 -6 -5 -6 6 -1 11 2 17 5 13 3 -3 4
-12 1 -19z m2377 -10 c-5 -7 -8 -22 -6 -33 l2 -20 -9 20 c-8 19 5 62 16 52 3
-3 1 -12 -3 -19z m-196 -5 c-1 -10 2 -31 6 -46 4 -17 3 -26 -2 -23 -12 7 -22
55 -15 73 7 18 12 16 11 -4z m1558 3 c17 -18 18 -27 2 -23 -14 2 -28 17 -28
30 0 11 10 8 26 -7z m52 -11 c-3 -3 -9 2 -12 12 -6 14 -5 15 5 6 7 -7 10 -15
7 -18z m-1561 -22 c-3 -10 -5 -4 -5 12 0 17 2 24 5 18 2 -7 2 -21 0 -30z m183
-16 c0 -5 -7 -4 -15 3 -8 7 -15 20 -15 29 1 13 3 13 15 -3 8 -11 15 -24 15
-29z m-260 18 c6 -8 10 -20 8 -26 -2 -6 -12 0 -21 15 -18 27 -8 37 13 11z
m710 -16 c0 -11 7 -19 16 -19 9 0 18 -9 21 -20 3 -11 9 -20 14 -20 5 0 6 -7 2
-15 -3 -9 -13 -15 -22 -14 -31 3 -40 -1 -35 -16 4 -8 10 -12 15 -9 5 3 9 -3 9
-13 0 -24 19 -43 42 -43 10 0 18 -7 18 -15 0 -9 -9 -15 -24 -15 -14 0 -27 -4
-31 -10 -3 -5 -13 -6 -21 -3 -11 4 -14 13 -9 31 4 18 3 23 -8 19 -8 -3 -20 3
-28 14 -7 10 -19 19 -26 19 -6 0 -18 9 -26 20 -9 13 -23 19 -43 17 -23 -2 -30
2 -32 21 -5 33 5 53 22 46 9 -3 12 -12 8 -22 -5 -14 -3 -15 10 -4 13 10 17 10
22 -3 3 -8 10 -15 15 -15 6 0 8 7 4 16 -5 14 0 16 35 12 47 -4 54 10 27 49
-14 20 -13 21 5 16 11 -3 20 -14 20 -24z m158 -40 c-2 -33 1 -50 10 -54 17 -6
15 -32 -3 -39 -8 -3 -15 -1 -15 4 0 5 -7 16 -16 24 -8 9 -10 16 -4 16 8 0 8 6
0 20 -15 29 -3 90 17 83 11 -4 14 -18 11 -54z m-543 21 c4 -6 -7 -10 -25 -10
-18 0 -29 4 -25 10 3 6 15 10 25 10 10 0 22 -4 25 -10z m685 -22 c0 -5 -4 -8
-10 -8 -5 0 -10 10 -10 23 0 18 2 19 10 7 5 -8 10 -18 10 -22z m-2860 12 c0
-5 -5 -10 -11 -10 -5 0 -7 5 -4 10 3 6 8 10 11 10 2 0 4 -4 4 -10z m2665 -18
c-3 -3 -11 0 -18 7 -9 10 -8 11 6 5 10 -3 15 -9 12 -12z m-400 -2 c3 -5 1 -10
-4 -10 -6 0 -11 5 -11 10 0 6 2 10 4 10 3 0 8 -4 11 -10z m-58 -16 c2 -6 -6
-10 -19 -8 -13 1 -30 3 -38 4 -11 1 -9 4 5 10 25 11 47 8 52 -6z m704 0 c7 -9
24 -20 37 -25 13 -5 20 -13 17 -19 -4 -6 1 -7 12 -3 16 6 16 5 5 -9 -11 -14
-10 -20 8 -38 21 -21 40 -19 40 5 0 8 5 17 12 21 8 5 9 2 5 -10 -4 -10 -1 -19
8 -22 8 -4 15 -12 15 -18 0 -7 9 -22 20 -34 20 -21 13 -37 -12 -27 -7 3 -20
-6 -30 -22 l-16 -27 1 26 c1 14 5 24 8 22 4 -2 9 2 12 9 3 8 -1 14 -9 14 -8 0
-14 -4 -14 -9 0 -14 -32 -9 -51 8 -16 15 -17 14 -12 -5 3 -12 9 -21 13 -21 14
0 20 -31 9 -48 -10 -16 -10 -15 -5 1 3 11 0 17 -9 17 -8 0 -15 -4 -15 -10 0
-5 -13 -10 -28 -10 -15 0 -33 -5 -39 -11 -7 -7 -13 -7 -17 -1 -3 5 2 17 12 25
21 19 19 89 -3 81 -9 -4 -12 5 -10 30 3 27 0 33 -12 29 -11 -4 -14 0 -11 18 2
13 9 23 16 22 6 -2 12 2 12 7 0 6 -6 10 -12 11 -10 0 -10 2 -1 5 7 3 9 12 6
20 -7 19 21 18 38 -2z m-975 -22 c-17 -16 -18 -16 -5 5 7 12 15 20 18 17 3 -2
-3 -12 -13 -22z m394 -11 c0 -9 -23 -21 -41 -21 -4 0 -6 7 -3 15 7 16 44 21
44 6z m1140 5 c0 -3 -4 -8 -10 -11 -5 -3 -10 -1 -10 4 0 6 5 11 10 11 6 0 10
-2 10 -4z m-4060 -16 c0 -5 -4 -10 -10 -10 -5 0 -10 5 -10 10 0 6 5 10 10 10
6 0 10 -4 10 -10z m3427 -22 c-3 -8 -6 -5 -6 6 -1 11 2 17 5 13 3 -3 4 -12 1
-19z m670 4 c13 -21 1 -48 -16 -38 -12 8 -15 56 -3 56 4 0 12 -8 19 -18z
m-1387 -12 c0 -5 -4 -10 -10 -10 -5 0 -10 5 -10 10 0 6 5 10 10 10 6 0 10 -4
10 -10z m671 -54 c-7 -9 -7 -16 1 -24 17 -17 -29 -16 -65 1 -29 13 -38 34 -9
22 9 -4 26 -10 37 -13 17 -5 18 -3 7 10 -10 13 -9 16 8 21 12 3 21 14 21 29 2
19 3 19 6 -5 3 -16 0 -34 -6 -41z m-2181 -30 c0 -6 -7 -1 -15 10 -8 10 -14 26
-14 34 0 16 28 -28 29 -44z m2536 17 c-11 -11 -17 4 -9 23 7 18 8 18 11 1 2
-10 1 -21 -2 -24z m-1072 -18 c-4 -8 -10 -15 -15 -15 -5 0 -9 -6 -9 -14 0 -8
-4 -17 -9 -20 -10 -7 -61 16 -61 27 0 5 5 5 10 2 6 -3 10 1 10 10 0 9 5 13 10
10 6 -3 10 -1 10 4 0 6 13 11 30 11 22 0 28 -4 24 -15z m1496 -21 c0 -8 5 -14
10 -14 6 0 10 -4 10 -10 0 -16 -20 -12 -47 10 -14 11 -21 20 -14 20 6 0 11 7
11 16 0 14 3 14 15 4 8 -7 15 -19 15 -26z m-700 16 c0 -5 -4 -10 -10 -10 -5 0
-10 5 -10 10 0 6 5 10 10 10 6 0 10 -4 10 -10z m-900 -10 c0 -5 -4 -10 -10
-10 -5 0 -10 5 -10 10 0 6 5 10 10 10 6 0 10 -4 10 -10z m1050 -70 c0 -5 -4
-10 -10 -10 -5 0 -10 5 -10 10 0 6 5 10 10 10 6 0 10 -4 10 -10z m65 -17 c7 3
18 -5 25 -19 8 -13 17 -24 22 -24 4 0 8 -7 8 -15 0 -21 -9 -19 -30 6 -10 11
-27 21 -37 22 -15 1 -18 7 -14 31 3 21 6 25 9 13 2 -10 10 -16 17 -14z m-1296
-6 c-9 -7 -14 -17 -12 -22 2 -6 -13 -26 -34 -45 -27 -26 -33 -29 -24 -12 7 13
11 32 9 43 -3 20 31 46 62 48 13 0 13 -1 -1 -12z m498 -9 c-1 -22 -13 -38 -30
-38 -5 0 -6 4 -3 9 4 5 1 11 -5 13 -8 3 -6 10 5 21 24 23 35 21 33 -5z m14
-61 c-10 -9 -11 -8 -5 6 3 10 9 15 12 12 3 -3 0 -11 -7 -18z m1409 -31 c-6 -6
-5 -16 1 -28 6 -12 6 -18 -1 -18 -5 0 -10 5 -10 10 0 6 -9 19 -20 30 -16 16
-18 23 -8 33 10 11 15 11 30 -2 11 -9 14 -19 8 -25z m-183 22 c-1 -49 5 -66
26 -73 12 -4 26 -7 31 -6 4 1 16 -8 26 -19 21 -24 35 -12 25 20 -4 11 -2 20 4
20 6 0 11 -14 11 -30 0 -35 27 -53 42 -27 9 17 49 24 47 10 -4 -27 1 -35 16
-23 12 10 15 7 21 -14 8 -35 0 -44 -40 -39 -19 2 -37 -1 -41 -7 -3 -5 -1 -10
5 -10 14 0 57 -40 44 -41 -5 0 1 -4 14 -9 12 -5 22 -17 22 -27 -1 -17 -1 -17
-14 0 -18 23 -46 22 -46 -3 0 -11 5 -20 10 -20 6 0 10 -4 10 -10 0 -13 -57
-13 -65 -1 -3 6 4 15 15 21 12 6 20 21 20 35 0 25 -14 33 -25 15 -10 -17 -25
-11 -25 9 0 19 -83 71 -113 71 -24 0 -68 -45 -62 -63 5 -12 1 -15 -14 -14 -24
1 -26 8 -9 25 16 16 2 28 -16 13 -12 -10 -20 -10 -38 0 -17 9 -19 14 -8 17 8
3 23 13 34 24 18 16 18 18 2 18 -10 0 -16 5 -13 13 2 6 10 11 16 10 6 -2 11 0
12 5 3 27 9 47 16 49 20 7 31 20 38 42 5 18 4 22 -5 16 -9 -5 -11 -4 -6 3 10
16 34 15 33 0z m-1201 -35 c-11 -11 -19 6 -11 24 8 17 8 17 12 0 3 -10 2 -21
-1 -24z m619 27 c3 -5 1 -10 -4 -10 -6 0 -11 5 -11 10 0 6 2 10 4 10 3 0 8 -4
11 -10z m334 -32 c12 -24 15 -34 6 -23 -9 11 -19 19 -23 17 -4 -1 -8 9 -10 23
-5 36 3 31 27 -17z m306 32 c3 -5 2 -10 -4 -10 -5 0 -13 5 -16 10 -3 6 -2 10
4 10 5 0 13 -4 16 -10z m-595 -44 c5 -13 14 -26 21 -28 7 -2 10 -9 8 -16 -6
-16 -45 17 -54 46 -9 30 13 29 25 -2z m750 14 c0 -5 -4 -10 -10 -10 -5 0 -10
5 -10 10 0 6 5 10 10 10 6 0 10 -4 10 -10z m-610 -10 c0 -5 -5 -10 -11 -10 -5
0 -7 5 -4 10 3 6 8 10 11 10 2 0 4 -4 4 -10z m294 -35 c-4 -8 -11 -15 -16 -15
-6 0 -5 6 2 15 7 8 14 15 16 15 2 0 1 -7 -2 -15z m-44 -40 c0 -12 -29 -3 -34
10 -4 13 -2 14 14 5 11 -6 20 -13 20 -15z m-385 5 c3 -5 -1 -10 -9 -10 -9 0
-16 5 -16 10 0 6 4 10 9 10 6 0 13 -4 16 -10z m285 -30 c0 -5 -7 -10 -15 -10
-8 0 -15 5 -15 10 0 6 7 10 15 10 8 0 15 -4 15 -10z m-195 -8 c-2 -3 3 -11 13
-18 29 -21 4 -28 -33 -8 -43 23 -44 29 -5 30 17 1 28 -1 25 -4z m235 -32 c0
-5 -2 -10 -4 -10 -3 0 -8 5 -11 10 -3 6 -1 10 4 10 6 0 11 -4 11 -10z m50 -10
c0 -5 -4 -10 -10 -10 -5 0 -10 5 -10 10 0 6 5 10 10 10 6 0 10 -4 10 -10z
m-360 -40 c0 -5 -7 -10 -16 -10 -8 0 -12 5 -9 10 3 6 10 10 16 10 5 0 9 -4 9
-10z m830 -110 c0 -11 -4 -20 -10 -20 -5 0 -14 9 -20 20 -9 17 -8 20 10 20 13
0 20 -7 20 -20z m-121 -100 c0 -9 -4 -8 -9 5 -5 11 -9 27 -9 35 0 9 4 8 9 -5
5 -11 9 -27 9 -35z m121 36 c0 -2 -7 -9 -15 -16 -12 -10 -15 -10 -15 4 0 9 7
16 15 16 8 0 15 -2 15 -4z m-35 -37 c8 -23 1 -34 -14 -24 -13 8 -15 45 -2 45
5 0 13 -9 16 -21z m-38 -61 c-3 -8 -6 -5 -6 6 -1 11 2 17 5 13 3 -3 4 -12 1
-19z m-337 -18 c0 -5 -4 -10 -10 -10 -5 0 -10 5 -10 10 0 6 5 10 10 10 6 0 10
-4 10 -10z m460 -5 c-7 -8 -20 -15 -29 -15 -11 1 -8 5 9 15 32 18 35 18 20 0z
m-1404 -27 c-9 -5 -20 -7 -25 -4 -5 3 -14 -1 -21 -9 -16 -19 -34 -19 -27 -1 3
8 1 17 -6 19 -7 2 12 4 42 4 38 0 49 -2 37 -9z m1394 -21 l25 -19 -37 4 c-31
3 -35 2 -25 -10 9 -11 7 -18 -10 -31 -20 -17 -20 -18 -2 -42 21 -27 25 -63 7
-56 -7 2 -13 12 -13 23 0 10 -10 33 -22 51 -28 38 -28 43 -3 43 19 0 25 13 22
52 -2 20 20 15 58 -15z m-1370 -21 c0 -2 -8 -10 -17 -17 -16 -13 -17 -12 -4 4
13 16 21 21 21 13z m490 -16 c0 -5 -5 -10 -11 -10 -5 0 -7 5 -4 10 3 6 8 10
11 10 2 0 4 -4 4 -10z m157 4 c-3 -3 -12 -4 -19 -1 -8 3 -5 6 6 6 11 1 17 -2
13 -5z m543 -4 c0 -5 -7 -10 -15 -10 -8 0 -15 5 -15 10 0 6 7 10 15 10 8 0 15
-4 15 -10z m-306 -33 c15 -21 17 -30 8 -39 -9 -9 -12 -8 -12 5 0 9 -4 17 -10
17 -24 0 -10 -23 35 -55 16 -12 17 -14 4 -15 -9 0 -22 6 -29 14 -6 8 -17 13
-25 10 -7 -3 -16 -1 -20 5 -3 6 -2 11 3 11 21 0 20 39 -2 55 -11 9 -15 13 -8
10 6 -3 12 -1 12 5 0 18 22 6 44 -23z m-434 -54 c0 -5 -14 -8 -31 -9 -20 -1
-26 2 -17 7 16 11 48 12 48 2z m510 -3 c27 -14 53 -110 30 -110 -5 0 -10 11
-10 25 0 31 -24 81 -42 88 -7 3 -9 6 -5 6 5 1 17 -4 27 -9z m286 -24 c18 -19
18 -30 0 -23 -10 4 -13 1 -9 -9 6 -16 -23 -19 -45 -5 -11 7 -9 13 9 30 27 25
27 25 45 7z m-3082 -22 c3 -8 2 -12 -4 -9 -6 3 -10 10 -10 16 0 14 7 11 14 -7z
m313 -6 c-3 -8 -6 -5 -6 6 -1 11 2 17 5 13 3 -3 4 -12 1 -19z m2037 -12 c-3
-8 -13 -17 -22 -21 -13 -5 -13 -2 3 15 21 24 26 25 19 6z m-79 -23 c18 -14 18
-15 2 -9 -10 3 -32 6 -48 6 -16 0 -29 5 -29 10 0 16 53 11 75 -7z m465 1 c0
-12 -4 -14 -12 -7 -7 6 -20 13 -28 16 -9 3 -3 6 13 6 19 1 27 -4 27 -15z m395
6 c3 -5 1 -10 -4 -10 -6 0 -11 5 -11 10 0 6 2 10 4 10 3 0 8 -4 11 -10z
m-1901 -165 c7 -71 11 -132 9 -135 -2 -3 -9 3 -15 13 -8 15 -63 46 -63 36 0
-13 -56 57 -61 76 -7 29 -21 31 -51 10 -13 -9 -24 -11 -28 -6 -3 6 -12 8 -20
5 -7 -3 -21 -2 -30 4 -12 6 1 12 52 20 37 6 69 16 71 22 2 5 8 10 13 10 14 0
87 79 80 85 -3 4 1 10 9 15 18 11 16 19 34 -155z m1459 139 c-4 -12 -33 -21
-33 -10 0 17 14 34 25 30 8 -3 11 -12 8 -20z m225 1 c-3 -3 -9 2 -12 12 -6 14
-5 15 5 6 7 -7 10 -15 7 -18z m-1753 -6 c-10 -15 -25 -10 -19 6 4 8 10 12 15
9 5 -3 7 -10 4 -15z m1705 11 c0 -5 -5 -10 -11 -10 -5 0 -7 5 -4 10 3 6 8 10
11 10 2 0 4 -4 4 -10z m154 -5 c3 -8 1 -15 -4 -15 -6 0 -10 7 -10 15 0 8 2 15
4 15 2 0 6 -7 10 -15z m41 -25 c3 -5 -1 -10 -10 -10 -9 0 -13 5 -10 10 3 6 8
10 10 10 2 0 7 -4 10 -10z m65 1 c0 -6 -5 -13 -10 -16 -6 -4 -8 -11 -5 -16 4
-5 1 -9 -4 -9 -6 0 -11 4 -11 10 0 5 -7 7 -16 3 -14 -5 -15 -3 -5 15 12 22 51
31 51 13z m-220 -45 c0 -2 -9 -2 -20 1 -12 3 -20 14 -20 26 0 21 0 21 20 -1
11 -12 20 -23 20 -26z m83 24 c3 -11 1 -23 -4 -26 -5 -3 -9 6 -9 20 0 31 6 34
13 6z m59 -6 c3 -3 3 -14 1 -25 -6 -22 -28 -21 -28 2 0 8 -4 17 -10 21 -5 4
-1 8 11 8 11 0 23 -3 26 -6z m-2110 -86 c-9 -9 -15 -9 -24 0 -9 9 -7 12 12 12
19 0 21 -3 12 -12z m1889 -81 c-9 -9 -14 -8 -21 3 -16 24 -11 31 11 19 16 -8
18 -14 10 -22z m-851 -7 c39 -20 60 -40 41 -40 -20 0 1 -28 25 -34 13 -4 24
-10 24 -15 0 -4 11 -20 24 -33 12 -14 26 -41 29 -59 6 -30 5 -32 -7 -16 -10
13 -21 16 -40 11 -23 -5 -26 -3 -26 19 0 14 -5 38 -10 52 -8 22 -13 25 -25 15
-8 -7 -14 -27 -13 -46 1 -19 -2 -37 -5 -41 -4 -3 -7 7 -8 23 0 16 -4 38 -9 49
-8 18 -9 18 -10 -5 0 -22 -2 -23 -13 -9 -8 10 -25 14 -49 13 -34 -3 -36 -1
-26 16 16 25 42 31 78 17 16 -6 32 -8 36 -4 9 8 1 18 -18 21 -7 1 -22 7 -33
14 -19 11 -19 11 5 13 14 1 32 0 39 -1 25 -3 -6 27 -34 34 -14 4 -25 11 -25
16 0 14 5 13 50 -10z m810 -26 c0 -8 -4 -12 -10 -9 -5 3 -10 13 -10 21 0 8 5
12 10 9 6 -3 10 -13 10 -21z m-113 -16 c-3 -8 -6 -5 -6 6 -1 11 2 17 5 13 3
-3 4 -12 1 -19z m-838 -30 c-11 -7 -11 -11 -1 -15 21 -8 13 -25 -8 -18 -12 4
-27 1 -35 -5 -12 -10 -15 -9 -15 8 0 12 9 26 20 32 11 6 20 18 20 26 0 13 2
13 17 -1 14 -14 14 -18 2 -27z m-2299 -8 c0 -5 -7 -10 -16 -10 -8 0 -12 5 -9
10 3 6 10 10 16 10 5 0 9 -4 9 -10z m2630 -44 c0 -11 -5 -28 -10 -36 -16 -26
-33 3 -26 45 6 30 10 34 22 25 8 -7 14 -22 14 -34z m-490 24 c0 -5 -5 -10 -11
-10 -5 0 -7 5 -4 10 3 6 8 10 11 10 2 0 4 -4 4 -10z m840 0 c0 -5 -5 -10 -11
-10 -5 0 -7 5 -4 10 3 6 8 10 11 10 2 0 4 -4 4 -10z m-750 -4 c0 -11 -19 -15
-25 -6 -3 5 1 10 9 10 9 0 16 -2 16 -4z m-165 -34 c-3 -3 -11 0 -18 7 -9 10
-8 11 6 5 10 -3 15 -9 12 -12z m885 -17 c-26 -28 -35 -27 -25 4 4 13 15 21 27
21 21 0 21 0 -2 -25z m-760 -10 c14 -19 14 -19 -2 -6 -10 7 -18 18 -18 24 0 6
1 8 3 6 1 -2 9 -13 17 -24z m864 -2 c41 -21 44 -29 16 -36 -11 -3 -18 -1 -14
4 3 5 -2 9 -11 9 -8 0 -18 7 -22 16 -5 13 -8 12 -25 -6 -10 -11 -23 -18 -29
-15 -16 11 -10 25 12 25 11 0 17 5 14 10 -10 16 21 12 59 -7z m-874 -21 c0 -5
-11 -14 -25 -20 -14 -6 -25 -8 -25 -4 0 6 9 12 48 31 1 0 2 -3 2 -7z m440 -12
c0 -5 -4 -10 -10 -10 -5 0 -10 5 -10 10 0 6 5 10 10 10 6 0 10 -4 10 -10z m10
-40 c0 -5 -5 -10 -11 -10 -5 0 -7 5 -4 10 3 6 8 10 11 10 2 0 4 -4 4 -10z
m330 -41 c0 -16 -28 3 -33 23 -5 19 -5 19 14 2 10 -9 19 -21 19 -25z m-408 -1
c-7 -7 -12 -8 -12 -2 0 14 12 26 19 19 2 -3 -1 -11 -7 -17z m401 -22 c18 -14
24 -46 8 -46 -15 0 -41 30 -41 46 0 17 10 17 33 0z m-567 -46 c29 0 89 -24 98
-39 8 -12 -21 -4 -41 12 -11 8 -70 12 -99 6 -5 -1 -17 -1 -27 0 -24 1 -11 21
14 21 10 0 19 6 20 13 0 10 2 10 6 0 2 -7 16 -13 29 -13z m108 1 c19 -11 37
-17 40 -14 5 5 8 -11 5 -33 0 -4 8 -12 18 -18 80 -48 103 -72 103 -106 0 -17
-20 -11 -27 8 -9 24 -39 52 -49 44 -4 -4 -5 0 -1 9 3 11 -3 21 -20 30 -14 7
-29 24 -34 36 -5 15 -17 23 -32 23 -13 0 -32 9 -42 20 -23 25 -6 26 39 1z
m376 -11 c0 -5 -5 -10 -11 -10 -5 0 -7 5 -4 10 3 6 8 10 11 10 2 0 4 -4 4 -10z
m40 0 c0 -5 -4 -10 -10 -10 -5 0 -10 5 -10 10 0 6 5 10 10 10 6 0 10 -4 10
-10z m0 -40 c-8 -5 -17 -7 -19 -4 -3 3 1 9 9 14 8 5 17 7 19 4 3 -3 -1 -9 -9
-14z m-560 -19 c0 -12 8 -21 19 -23 19 -3 19 -4 2 -24 -9 -12 -27 -25 -39 -29
-20 -6 -22 -4 -17 19 3 14 7 37 10 51 6 29 25 34 25 6z m120 9 c0 -5 -4 -10
-9 -10 -6 0 -13 5 -16 10 -3 6 1 10 9 10 9 0 16 -4 16 -10z m-354 -37 c-7 -7
-26 7 -26 19 0 6 6 6 15 -2 9 -7 13 -15 11 -17z m424 13 c0 -3 -4 -8 -10 -11
-5 -3 -10 -1 -10 4 0 6 5 11 10 11 6 0 10 -2 10 -4z m-45 -35 c-6 -5 -25 10
-25 20 0 5 6 4 14 -3 8 -7 12 -15 11 -17z m-357 -25 c-7 -7 -19 -11 -25 -9
-18 7 -5 23 18 23 16 0 18 -2 7 -14z m422 -18 c0 -19 -16 -5 -17 14 -2 18 0
20 7 8 5 -8 10 -18 10 -22z m-364 -10 c-3 -27 -8 -34 -30 -36 -27 -3 -56 12
-56 30 0 6 14 8 30 6 17 -3 33 -1 36 4 3 4 -3 8 -13 9 -16 0 -16 1 2 9 32 14
35 12 31 -22z m232 14 c2 -7 -3 -12 -12 -12 -9 0 -16 7 -16 16 0 17 22 14 28
-4z m67 8 c3 -5 2 -10 -4 -10 -5 0 -13 5 -16 10 -3 6 -2 10 4 10 5 0 13 -4 16
-10z m618 -40 c3 -11 2 -20 -2 -20 -10 0 -31 37 -24 44 9 9 20 -2 26 -24z
m-873 6 c0 -3 -4 -8 -10 -11 -5 -3 -10 -1 -10 4 0 6 5 11 10 11 6 0 10 -2 10
-4z m755 -16 c3 -5 -3 -10 -15 -10 -12 0 -18 5 -15 10 3 6 10 10 15 10 5 0 12
-4 15 -10z m89 -6 c3 -9 6 -23 5 -32 0 -11 -2 -12 -6 -4 -2 6 -11 12 -19 12
-14 0 -19 21 -7 33 11 11 20 8 27 -9z m-1325 -36 c1 -5 -3 -8 -8 -8 -12 0 -22
30 -14 43 6 10 20 -13 22 -35z m455 17 c3 -10 -1 -15 -14 -15 -23 0 -35 16
-18 23 21 9 26 8 32 -8z m66 -6 c0 -5 -4 -9 -10 -9 -5 0 -10 7 -10 16 0 8 5
12 10 9 6 -3 10 -10 10 -16z m480 -79 c0 -5 -5 -10 -11 -10 -5 0 -7 5 -4 10 3
6 8 10 11 10 2 0 4 -4 4 -10z"/>
<path d="M3075 3529 c-4 -6 -5 -12 -2 -15 2 -3 7 2 10 11 7 17 1 20 -8 4z"/>
<path d="M3265 3105 c1 -30 5 -58 8 -62 10 -9 8 90 -1 105 -5 7 -8 -12 -7 -43z"/>
<path d="M3360 3129 c0 -5 5 -7 10 -4 6 3 10 8 10 11 0 2 -4 4 -10 4 -5 0 -10
-5 -10 -11z"/>
<path d="M3313 3064 c-8 -22 5 -30 23 -12 14 14 14 16 -1 21 -9 4 -18 1 -22
-9z"/>
<path d="M3226 3055 c4 -8 10 -15 14 -15 4 0 10 -10 13 -22 4 -12 9 -19 12
-16 8 8 -23 68 -35 68 -5 0 -7 -7 -4 -15z"/>
<path d="M3228 3019 c-5 -15 13 -59 24 -59 4 0 2 15 -4 33 -14 40 -15 41 -20
26z"/>
<path d="M3490 2990 c0 -5 6 -10 14 -10 8 0 18 5 21 10 3 6 -3 10 -14 10 -12
0 -21 -4 -21 -10z"/>
<path d="M3315 2970 c-19 -8 -19 -9 3 -9 12 -1 22 4 22 9 0 6 -1 10 -2 9 -2 0
-12 -4 -23 -9z"/>
<path d="M3340 2950 c-9 -6 -10 -10 -3 -10 6 0 15 5 18 10 8 12 4 12 -15 0z"/>
<path d="M3346 2921 c-4 -5 -2 -12 3 -15 5 -4 12 -2 15 3 4 5 2 12 -3 15 -5 4
-12 2 -15 -3z"/>
<path d="M3231 2864 c14 -17 49 -18 49 -1 0 6 -13 12 -30 13 -24 1 -28 -1 -19
-12z"/>
<path d="M3334 2595 c3 -21 16 -31 16 -12 0 9 -4 18 -9 21 -5 4 -8 -1 -7 -9z"/>
<path d="M3515 2579 c4 -22 0 -38 -12 -52 -17 -20 -17 -20 0 -14 10 4 21 7 23
7 2 0 4 20 4 45 0 25 -5 45 -10 45 -6 0 -8 -13 -5 -31z"/>
<path d="M3377 2570 c3 -11 7 -20 9 -20 2 0 4 9 4 20 0 11 -4 20 -9 20 -5 0
-7 -9 -4 -20z"/>
<path d="M3587 2583 c-10 -9 -9 -23 2 -23 5 0 11 7 15 15 5 15 -5 20 -17 8z"/>
<path d="M3665 2570 c3 -5 8 -10 11 -10 2 0 4 5 4 10 0 6 -5 10 -11 10 -5 0
-7 -4 -4 -10z"/>
<path d="M3452 2500 c-12 -10 -18 -21 -13 -24 8 -6 20 5 35 32 10 16 5 15 -22
-8z"/>
<path d="M1214 2552 c-11 -9 -32 -36 -47 -60 -16 -24 -34 -45 -41 -48 -7 -3
-50 9 -95 26 -45 16 -92 30 -104 29 -25 -1 -11 -8 111 -53 39 -15 72 -31 72
-35 0 -5 -23 -42 -51 -84 -53 -80 -66 -129 -37 -135 13 -2 20 8 28 40 7 24 25
64 41 89 16 25 29 51 29 57 0 23 47 11 106 -27 33 -21 66 -46 73 -55 16 -20
41 -21 41 -2 0 16 -109 91 -156 106 -19 6 -34 17 -33 23 1 15 36 75 67 116 27
35 26 38 -4 13z"/>
<path d="M1807 2530 c-69 -36 -77 -37 -107 -5 -13 14 -26 23 -28 20 -3 -3 7
-18 22 -34 l27 -29 -48 -38 c-80 -64 -113 -97 -113 -116 0 -10 3 -18 6 -18 3
0 38 34 79 75 40 41 78 75 83 75 15 0 52 -54 89 -130 25 -53 32 -61 39 -46 8
21 -14 68 -64 134 -18 24 -32 51 -30 60 2 10 24 28 50 42 46 25 67 40 56 40
-3 0 -30 -13 -61 -30z"/>
<path d="M1381 1964 c0 -11 3 -14 6 -6 3 7 2 16 -1 19 -3 4 -6 -2 -5 -13z"/>
<path d="M4099 1626 c6 -7 9 -21 5 -30 -3 -9 -1 -16 5 -16 6 0 11 8 11 18 0
14 2 14 9 3 5 -8 16 -11 27 -7 14 6 11 10 -19 26 -43 23 -54 25 -38 6z"/>
<path d="M2 1915 c0 -16 2 -22 5 -12 2 9 2 23 0 30 -3 6 -5 -1 -5 -18z"/>
<path d="M4560 775 c0 -8 9 -15 20 -15 11 0 20 7 20 15 0 8 -9 15 -20 15 -11
0 -20 -7 -20 -15z"/>
<path d="M4136 627 c3 -10 9 -15 12 -12 3 3 0 11 -7 18 -10 9 -11 8 -5 -6z"/>
<path d="M4011 458 c5 -18 9 -35 9 -37 0 -2 7 2 15 9 12 10 12 15 -2 36 -22
34 -33 30 -22 -8z"/>
<path d="M4056 106 c3 -8 13 -12 25 -9 23 6 15 23 -11 23 -12 0 -17 -5 -14
-14z"/>
<path d="M4139 99 c-20 -12 -19 -58 1 -54 8 2 21 4 28 4 16 1 15 29 -1 46 -9
8 -19 10 -28 4z"/>
<path d="M4091 50 c-1 -23 2 -31 9 -24 7 7 7 19 1 35 -9 23 -10 22 -10 -11z"/>
<path d="M4237 23 c-12 -11 -8 -23 8 -23 8 0 15 7 15 15 0 16 -12 20 -23 8z"/>
<path d="M4290 10 c0 -5 7 -10 15 -10 8 0 15 5 15 10 0 6 -7 10 -15 10 -8 0
-15 -4 -15 -10z"/>
<path d="M4348 3 c7 -3 16 -2 19 1 4 3 -2 6 -13 5 -11 0 -14 -3 -6 -6z"/>
</g>
</svg>
